<svg version="1.1" id="Layer_1" xmlns="http://www.w3.org/2000/svg" xmlns:xlink="http://www.w3.org/1999/xlink" x="0px" y="0px"
	 width="100%" viewBox="0 0 1200 1200" enable-background="new 0 0 1200 1200" xml:space="preserve">
<path fill="#000000" opacity="1.000000" stroke="none" 
	d="
M679.000000,1201.000000 
	C454.166656,1201.000000 229.833328,1200.989136 5.500043,1201.093506 
	C1.750793,1201.095215 0.906084,1200.249023 0.907021,1196.500000 
	C1.006199,799.500000 1.006199,402.500000 0.907021,5.500023 
	C0.906084,1.750933 1.750933,0.906086 5.500023,0.907022 
	C402.500000,1.006185 799.500000,1.006186 1196.500000,0.907022 
	C1200.249023,0.906086 1201.093994,1.750932 1201.093140,5.500023 
	C1200.993896,402.500000 1200.993896,799.500000 1201.093140,1196.500000 
	C1201.093994,1200.249023 1200.249268,1201.096313 1196.500000,1201.093872 
	C1024.166626,1200.985962 851.833313,1201.000000 679.000000,1201.000000 
z"/>
<path fill="#FFFFFF" opacity="1.000000" stroke="none" 
	d="
M1036.248779,668.407715 
	C1035.983276,675.346191 1033.567871,681.476807 1032.452515,687.847107 
	C1030.124878,701.141602 1026.727539,714.244873 1024.052002,727.483765 
	C1022.327271,736.017822 1019.987732,744.418335 1018.825989,753.089294 
	C1018.443665,755.942932 1016.846252,758.571594 1012.536499,758.138000 
	C1006.929016,757.573730 1001.222046,757.992249 995.557861,758.002625 
	C992.479492,758.008301 991.738159,757.093079 992.541748,753.720337 
	C995.750061,740.253845 998.578430,726.700134 1001.165527,713.087708 
	C1002.659668,705.226013 1004.511353,697.395020 1006.204773,689.549561 
	C1008.987244,676.658813 1012.071045,663.833374 1014.954407,650.963989 
	C1015.937195,646.577332 1012.574402,643.565796 1008.384277,645.286804 
	C1003.027161,647.486877 999.571472,650.965088 998.816040,657.452209 
	C997.832458,665.899048 995.497314,674.185730 993.803223,682.553284 
	C991.534424,693.759888 988.962097,704.902710 986.730835,716.120361 
	C985.143311,724.101196 983.499268,732.149902 981.476379,740.077454 
	C980.205322,745.058899 978.995117,750.068604 978.089905,755.125122 
	C977.659363,757.530640 976.474609,758.038513 974.379944,758.019897 
	C968.049866,757.963684 961.718994,758.014709 955.388489,757.991272 
	C953.148193,757.982971 951.692017,758.015198 952.604370,754.588806 
	C954.794495,746.363770 956.253296,737.943726 957.997925,729.600403 
	C959.150330,724.089233 960.284668,718.574158 961.430725,713.061584 
	C963.954041,700.924683 966.399475,688.770874 969.032654,676.657776 
	C970.772766,668.652954 972.817932,660.714905 974.651550,652.729736 
	C975.157104,650.528137 975.919189,647.922180 974.274902,646.181824 
	C972.399780,644.197266 969.883301,645.214172 967.448914,645.935425 
	C961.937744,647.568359 960.062134,651.858704 959.026917,656.761536 
	C956.132874,670.467773 953.139038,684.158752 950.600891,697.932495 
	C948.554810,709.036011 945.671631,719.951050 943.820129,731.110596 
	C942.481628,739.178467 940.118774,747.097961 938.859985,755.232849 
	C938.609924,756.848938 937.522461,758.192627 935.074646,758.092896 
	C928.421936,757.821899 921.750854,757.978027 915.087280,758.009949 
	C912.131836,758.024109 910.935181,757.817261 911.801758,753.840149 
	C915.465759,737.023376 919.287659,720.219971 922.576965,703.345764 
	C925.691406,687.368347 929.531799,671.536133 932.296204,655.466370 
	C934.111023,644.916260 936.920959,634.451172 939.079468,623.899719 
	C939.470093,621.990295 940.933716,620.186646 942.945190,620.135376 
	C949.760559,619.961670 956.591614,619.951843 963.402832,620.224060 
	C967.922607,620.404724 966.850342,623.479736 965.952026,626.256592 
	C965.712952,626.995728 964.573608,627.392273 965.455688,628.828552 
	C969.386230,628.358459 971.995056,625.082458 975.304932,623.182495 
	C978.358582,621.429504 981.214050,619.465759 984.905212,618.939392 
	C994.574768,617.560425 998.529846,623.830383 1001.667175,632.204346 
	C1007.395447,628.543518 1012.541992,624.102783 1018.613342,621.076782 
	C1031.392456,614.707336 1040.418457,622.394653 1041.942383,634.588623 
	C1042.700439,640.654297 1041.380127,646.606506 1039.906616,652.504944 
	C1038.622681,657.644714 1037.600708,662.849915 1036.248779,668.407715 
z"/>
<path fill="#FFFFFF" opacity="1.000000" stroke="none" 
	d="
M284.998444,645.982910 
	C282.673553,656.953003 280.093475,667.433777 278.090607,678.023621 
	C275.488098,691.783936 271.776031,705.185364 267.349152,718.471741 
	C264.566071,726.824646 260.878174,734.666748 255.640884,741.490845 
	C249.574387,749.395386 240.910797,753.668884 231.120911,756.103088 
	C216.859924,759.649109 202.462601,757.213379 188.152878,757.972839 
	C184.931519,758.143738 185.295624,756.630066 185.850342,753.916504 
	C189.299927,737.041992 193.100784,720.240845 196.577301,703.382874 
	C198.821350,692.501221 200.775192,681.469055 203.313477,670.685425 
	C205.924011,659.594910 208.168915,648.381104 210.526245,637.272095 
	C213.802597,621.832092 217.530396,606.447937 220.100967,590.839172 
	C220.909149,585.931702 222.960373,581.242249 223.065552,576.146118 
	C223.091873,574.871094 224.058212,573.976562 225.395615,574.035278 
	C240.629303,574.704651 256.009064,572.141479 271.063477,576.897217 
	C282.911560,580.640137 289.299347,590.684937 289.972443,602.850891 
	C290.774628,617.350769 287.825104,631.446838 284.998444,645.982910 
z"/>
<path fill="#FFFFFF" opacity="1.000000" stroke="none" 
	d="
M750.029541,619.530334 
	C755.218262,621.238525 759.445374,623.602539 762.410400,627.915466 
	C763.567993,629.599304 764.530273,629.936584 766.529358,628.281372 
	C770.976562,624.599365 776.150391,621.991333 781.562622,619.861694 
	C786.292664,618.000549 787.313965,618.631592 787.011597,623.609375 
	C786.665955,629.298889 783.941956,634.499939 783.750122,640.268677 
	C783.697021,641.865356 781.808289,643.208618 779.604431,643.021606 
	C776.984375,642.799133 774.451538,643.266418 771.882690,643.924072 
	C769.452454,644.546204 768.178406,645.664490 767.981750,648.199890 
	C767.116211,659.357605 763.532227,669.993469 761.629822,680.940979 
	C760.157043,689.416199 758.262329,697.707031 753.924377,705.126892 
	C746.419189,717.963867 735.664307,725.957092 720.158325,725.969421 
	C717.132751,725.971863 714.334595,726.098389 711.995544,728.442505 
	C708.753662,731.691284 709.050232,734.449097 713.465332,735.692566 
	C719.959839,737.521667 726.548340,739.020325 733.253357,740.077148 
	C743.177612,741.641479 753.389771,747.247925 755.758423,756.536987 
	C758.671936,767.963074 755.239685,778.342224 748.764954,787.593628 
	C739.039551,801.489807 724.446228,806.037964 708.385071,806.954956 
	C698.388733,807.525696 688.526917,806.839966 679.142212,802.665649 
	C663.815491,795.848328 665.413147,776.801270 676.622925,768.033630 
	C680.762695,764.795593 685.304016,762.180298 689.921082,759.556396 
	C686.900391,756.501038 683.212219,754.857300 681.723450,750.107483 
	C679.274170,742.293518 682.744568,736.938599 687.019287,731.598022 
	C690.097290,727.752441 693.867065,724.485840 698.178223,722.051636 
	C700.056030,720.991394 699.773621,719.734314 698.920959,718.674927 
	C691.549683,709.516235 691.943176,699.066895 694.049622,688.493591 
	C696.716003,675.109741 698.363098,661.436584 703.093506,648.574524 
	C708.210510,634.661316 716.969971,623.807007 731.941345,619.641174 
	C737.723328,618.032288 743.790955,619.059082 750.029541,619.530334 
z"/>
<path fill="#FFFFFF" opacity="1.000000" stroke="none" 
	d="
M380.790527,746.520020 
	C380.975616,739.230530 383.211090,732.696167 384.586639,726.069397 
	C387.364380,712.687500 390.316864,699.338867 393.126221,685.958923 
	C394.813538,677.922852 396.304077,669.846741 398.049347,661.824280 
	C400.647156,649.883118 403.513672,637.997437 405.911926,626.017334 
	C406.801392,621.574036 408.660034,619.596436 413.325562,619.927795 
	C417.966156,620.257324 422.648468,619.993958 427.312469,620.001404 
	C434.546997,620.012878 435.098755,620.773865 432.779694,627.596436 
	C432.589050,628.157227 432.195557,628.648987 431.471649,629.916199 
	C437.738892,627.817505 441.391296,623.118896 446.555786,620.674500 
	C457.702698,615.398560 465.951447,622.346924 468.105896,631.760254 
	C470.674255,642.982178 466.289429,653.251892 464.454468,663.803467 
	C462.335693,675.986694 459.188354,687.994080 456.866547,700.170471 
	C455.425995,707.725159 453.437347,715.193726 451.932404,722.762390 
	C449.799316,733.490051 447.221497,744.129272 445.085846,754.856506 
	C444.633270,757.129761 443.868744,758.032715 441.635223,758.017212 
	C434.639557,757.968506 427.641022,757.891052 420.648132,758.039124 
	C416.247040,758.132263 417.914459,754.854736 418.148163,753.188171 
	C418.839386,748.258850 420.162292,743.421143 421.146576,738.529175 
	C424.036530,724.166138 427.203186,709.850098 430.306091,695.544312 
	C432.609955,684.922302 434.142273,674.069946 437.584778,663.648621 
	C439.177399,658.827332 438.831329,653.481750 440.747406,648.565857 
	C441.683929,646.163025 437.296967,643.985046 434.128784,645.383240 
	C429.025391,647.635681 426.888702,652.208435 426.066376,657.272156 
	C424.618591,666.186890 422.587585,674.965942 420.679047,683.780579 
	C418.327484,694.641418 416.248260,705.560852 413.988983,716.442017 
	C412.319580,724.482178 410.538605,732.499146 408.830383,740.531311 
	C407.862030,745.084534 406.863342,749.633545 406.027496,754.211731 
	C405.558990,756.777771 404.669922,758.192444 401.622864,758.074036 
	C395.302643,757.828430 388.963531,757.888428 382.637604,758.043701 
	C379.093262,758.130615 377.432678,757.597778 378.829956,753.376587 
	C379.511017,751.318970 379.878052,749.039612 380.790527,746.520020 
z"/>
<path fill="#FFFFFF" opacity="1.000000" stroke="none" 
	d="
M623.810425,687.687073 
	C632.514771,681.192017 641.721802,676.287598 651.262878,671.957275 
	C653.805054,670.803467 655.931763,669.330383 656.466248,666.124451 
	C657.498535,659.932434 659.940430,654.001404 659.985901,647.619385 
	C659.997314,646.017395 660.571655,643.864197 658.515137,643.304626 
	C656.384033,642.724854 654.114136,642.404480 652.058472,644.314697 
	C647.961609,648.121765 647.144836,653.335571 646.154724,658.277283 
	C645.448669,661.801086 644.038818,663.084717 640.660645,663.027344 
	C634.834412,662.928467 628.999939,662.851685 623.179260,663.056824 
	C619.809265,663.175659 618.733521,661.815674 618.974365,658.639343 
	C619.527161,651.348389 622.689819,644.895630 626.589233,639.137695 
	C633.187744,629.394470 642.057556,621.886902 653.976257,619.622681 
	C668.402832,616.881958 680.142700,620.105957 686.451843,635.042847 
	C688.645447,640.236450 688.093689,645.832703 686.945862,651.323792 
	C683.589050,667.383240 680.392029,683.476562 676.960571,699.519836 
	C674.539917,710.836914 671.434326,722.022217 669.411072,733.404358 
	C668.138428,740.563538 665.646545,747.592773 666.043274,755.000732 
	C666.172974,757.422058 665.396851,758.116699 662.998047,758.053833 
	C656.841248,757.892456 650.661743,757.731567 644.521667,758.090027 
	C640.093262,758.348572 638.334290,756.876465 638.970947,752.475403 
	C639.159424,751.172363 639.000000,749.819031 639.000000,748.047485 
	C632.915649,753.683838 627.288879,759.088440 618.679688,760.238892 
	C611.771423,761.162170 603.692383,756.812866 601.984558,749.964661 
	C597.247375,730.969421 603.224731,714.450684 613.584045,698.889832 
	C616.359314,694.721191 620.116760,691.488525 623.810425,687.687073 
z"/>
<path fill="#FFFFFF" opacity="1.000000" stroke="none" 
	d="
M896.000000,745.061890 
	C895.855530,748.947937 894.427612,752.252502 894.993347,755.760376 
	C895.364502,758.061951 893.865295,758.026978 892.238281,758.016663 
	C885.739990,757.975708 879.233826,757.812622 872.745667,758.071716 
	C868.979919,758.222107 867.537720,756.905701 867.949280,753.196472 
	C868.060425,752.194275 868.634338,750.746765 867.241089,750.136353 
	C865.735840,749.476807 864.734558,750.574158 863.896729,751.617798 
	C859.097229,757.596924 852.137939,759.330383 845.207031,760.895630 
	C841.019043,761.841431 832.323547,755.412598 831.025513,750.732605 
	C826.074463,732.882629 831.510437,717.048157 840.568787,701.915955 
	C849.486084,687.019287 864.023682,679.430054 879.029419,672.607361 
	C883.812134,670.432800 885.711792,667.367737 886.152893,662.239563 
	C886.576538,657.314209 889.073730,652.663330 888.997742,647.554077 
	C888.971252,645.773499 889.475281,643.280640 887.008728,643.168884 
	C884.676819,643.063232 881.982300,641.750488 879.915466,644.888306 
	C877.163391,649.066467 875.665771,653.592224 875.103882,658.364441 
	C874.666565,662.078491 872.872253,663.092896 869.547791,663.027893 
	C864.217712,662.923706 858.884094,663.007080 853.552002,662.997986 
	C848.102051,662.988708 846.167358,660.246399 848.219177,654.550781 
	C854.307495,637.650452 864.105225,624.201965 882.730286,619.797241 
	C896.342957,616.578064 910.943237,620.838196 915.205688,635.850952 
	C917.334351,643.348328 915.892700,651.003601 914.160645,658.586731 
	C911.505554,670.211060 909.412537,681.962891 906.981506,693.639832 
	C905.308350,701.676697 903.438538,709.672363 901.708008,717.697571 
	C899.775085,726.661682 897.900146,735.638306 896.000000,745.061890 
z"/>
<path fill="#FFFFFF" opacity="1.000000" stroke="none" 
	d="
M522.982056,647.198303 
	C521.749146,644.446594 521.397766,640.903015 517.901184,641.152832 
	C515.230957,641.343567 513.146912,643.108398 511.596741,645.729187 
	C504.911652,657.031067 505.995758,662.469604 511.309357,670.804932 
	C516.279175,678.600830 523.213257,684.936768 527.645264,693.121399 
	C530.578674,698.538696 532.733704,704.028625 533.130493,710.396545 
	C533.793030,721.030151 531.510376,730.737854 526.007568,739.733459 
	C519.461853,750.433838 510.486328,757.793884 497.782806,760.017273 
	C487.323608,761.847717 478.028870,759.556152 470.030670,752.500000 
	C465.669952,748.652893 464.077545,743.060974 463.300385,737.894836 
	C462.441467,732.185425 462.078522,726.065369 463.990051,720.237549 
	C464.723206,718.002441 465.730194,716.813599 468.426910,716.923767 
	C474.415894,717.168457 480.421844,716.979858 486.420654,717.010376 
	C488.868896,717.022827 490.353119,717.232788 489.322083,720.711121 
	C488.412323,723.780396 488.576965,727.397400 489.163910,730.608704 
	C489.635986,733.191589 489.821930,736.838745 493.931549,736.983459 
	C497.882385,737.122498 501.597198,737.310120 503.840454,732.671692 
	C509.553589,720.858704 508.327454,712.025452 499.841003,702.213074 
	C494.666290,696.229919 489.497070,690.129150 485.660278,683.140015 
	C480.039429,672.901062 479.618835,661.995789 483.116089,651.136780 
	C486.686401,640.050903 492.175049,629.872864 502.752411,623.869751 
	C515.019958,616.907227 527.776917,616.589294 540.364319,623.164978 
	C545.268616,625.727051 550.158813,638.846619 548.853699,644.438477 
	C548.194458,647.263306 547.158569,650.100586 547.118835,652.943848 
	C547.070190,656.426025 545.561462,657.139526 542.520996,657.045837 
	C537.193665,656.881592 531.853455,656.871704 526.526489,657.042725 
	C522.639404,657.167480 519.953979,656.887634 521.860840,651.765747 
	C522.324158,650.521179 522.757019,649.036194 522.982056,647.198303 
z"/>
<path fill="#FFFFFF" opacity="1.000000" stroke="none" 
	d="
M573.083618,761.000000 
	C567.120117,759.572693 561.282715,759.535767 556.559509,755.264404 
	C552.757629,751.826294 550.717896,747.379395 550.316956,743.022278 
	C549.661499,735.898926 549.614441,728.656677 551.067627,721.377686 
	C553.339233,709.999329 556.438354,698.801758 558.117371,687.280945 
	C559.296997,679.186768 561.538452,671.244873 563.359924,663.247375 
	C564.502441,658.231262 565.790527,653.248108 566.921265,648.229431 
	C567.380066,646.193176 567.061035,644.942749 564.299011,644.889099 
	C561.309753,644.830994 557.519287,646.600220 555.449768,643.592712 
	C553.613159,640.923706 556.556580,638.152893 557.033142,635.346252 
	C557.651428,631.705688 557.821594,627.999939 559.122498,624.448792 
	C560.259583,621.344788 561.916992,619.887695 565.422546,619.921997 
	C573.112244,619.997437 574.202515,619.069214 574.885864,610.172424 
	C575.362061,603.971436 578.261047,598.346497 578.246094,592.000183 
	C578.239807,589.356689 579.933838,586.433777 584.354736,586.854187 
	C590.464661,587.435303 596.672974,587.088562 602.835632,586.964783 
	C606.184753,586.897522 606.830933,588.001953 606.025024,591.278259 
	C603.800232,600.322388 601.935791,609.456909 600.049438,618.580688 
	C599.743164,620.062134 599.579468,621.487000 602.341980,620.436829 
	C604.689209,619.544556 607.583435,620.007751 610.235107,620.017273 
	C615.657593,620.036804 617.748596,622.431152 615.728760,627.309143 
	C613.936768,631.637085 613.670654,636.074524 612.936707,640.522888 
	C612.489441,643.233521 611.320679,645.435852 607.764954,645.055420 
	C605.129089,644.773315 602.382812,645.346191 599.784729,644.926025 
	C594.805664,644.120667 593.705811,647.056946 592.966492,650.952209 
	C591.646362,657.907654 590.096130,664.819153 588.671448,671.755066 
	C586.434814,682.643921 584.234253,693.540283 581.995361,704.428711 
	C580.726746,710.598572 579.326599,716.730225 578.314453,722.965576 
	C577.795776,726.160400 578.399597,729.081604 579.433533,731.412964 
	C580.883362,734.681946 584.853210,733.049011 587.585205,732.859070 
	C593.397461,732.454895 593.173767,732.340332 591.634094,738.002747 
	C590.162598,743.414490 589.317505,749.049194 588.318604,754.559509 
	C587.640869,758.298462 585.746338,759.545166 583.242737,759.730286 
	C579.959900,759.972961 576.805725,760.931152 573.083618,761.000000 
z"/>
<path fill="#FFFFFF" opacity="1.000000" stroke="none" 
	d="
M388.998901,622.831360 
	C385.788788,633.422791 384.476044,644.002991 382.081360,654.343689 
	C379.429138,665.796509 377.403778,677.393188 374.975372,688.899719 
	C373.282349,696.921814 371.255402,704.873718 369.583954,712.899963 
	C367.286591,723.931763 365.307373,735.030823 362.923065,746.042847 
	C362.213623,749.319580 360.863647,752.444885 360.527008,755.856995 
	C360.370056,757.448242 359.179352,758.084351 357.363342,758.053894 
	C349.703857,757.925415 342.040924,757.994995 334.379272,758.002502 
	C332.385040,758.004456 330.778442,757.823669 331.460236,755.036865 
	C333.365540,747.249451 335.448364,739.488403 336.918121,731.615540 
	C339.163483,719.588074 341.913879,707.683472 344.585571,695.751160 
	C347.050598,684.742065 348.344482,673.450195 351.194336,662.554932 
	C353.232300,654.763367 354.589813,646.860474 356.382263,639.040771 
	C359.870453,623.823242 362.791779,608.476257 366.017944,593.197754 
	C367.247131,587.376587 368.850677,581.628906 369.906494,575.779663 
	C370.287506,573.669006 371.412415,574.014404 372.647461,574.011047 
	C380.309052,573.990051 387.971161,574.044739 395.632202,573.976257 
	C398.273315,573.952637 398.510864,574.821228 398.122467,577.393555 
	C396.724121,586.655457 394.424713,595.717896 392.567535,604.875854 
	C391.383087,610.716614 390.189453,616.555420 388.998901,622.831360 
z"/>
<path fill="#FFFFFF" opacity="1.000000" stroke="none" 
	d="
M779.977051,696.910889 
	C783.672241,678.344604 787.078430,660.152100 791.182190,642.118225 
	C792.462830,636.490417 793.538757,630.797913 795.001587,625.202271 
	C795.911743,621.721191 797.543457,619.618042 801.648987,619.927490 
	C805.952698,620.251892 810.299805,619.999939 814.627991,620.000000 
	C823.988159,620.000061 823.996094,620.010254 821.256531,629.170044 
	C826.447510,626.779175 830.020935,622.446289 835.291809,620.826050 
	C838.421509,619.863892 841.424988,619.162415 844.694275,618.893616 
	C848.569397,618.575012 848.377380,620.883789 847.913940,623.148621 
	C846.399109,630.552063 844.509766,637.880310 843.069214,645.296753 
	C842.505920,648.196899 840.706177,648.021545 838.691284,647.998352 
	C832.496216,647.927002 826.279114,647.433167 821.023560,651.947998 
	C818.145569,654.420288 815.912292,657.005188 814.925354,660.837524 
	C810.954407,676.256409 808.116760,691.906860 804.940979,707.492065 
	C802.633057,718.818298 799.449524,729.979675 797.506653,741.359741 
	C796.773621,745.653442 794.988953,749.718872 794.952881,754.154175 
	C794.931702,756.754211 793.764404,758.190491 790.678955,758.074158 
	C784.195923,757.829712 777.697266,757.990112 771.205017,758.004517 
	C768.437927,758.010620 766.854004,758.178345 767.794495,753.962769 
	C771.541138,737.169373 774.557373,720.212463 778.817261,703.527039 
	C779.339539,701.481323 778.178162,699.141418 779.977051,696.910889 
z"/>
<path fill="#FFFFFF" opacity="1.000000" stroke="none" 
	d="
M470.000000,548.000000 
	C431.185486,548.000000 392.870941,548.003052 354.556427,547.992737 
	C352.215240,547.992126 349.804016,548.869446 349.807190,544.560669 
	C349.810211,540.425110 351.927185,540.987915 354.434875,540.988159 
	C518.520996,541.001282 682.607117,541.003784 846.693237,540.967285 
	C849.407043,540.966675 851.180664,540.820740 851.170654,544.689331 
	C851.159424,549.034973 848.558044,547.982178 846.315491,547.982483 
	C721.043640,548.002197 595.771851,548.000000 470.000000,548.000000 
z"/>
<path fill="#FFFFFF" opacity="1.000000" stroke="none" 
	d="
M696.000122,492.076721 
	C697.333496,480.636505 698.595886,469.644501 700.045654,458.677246 
	C700.452393,455.600098 700.974915,452.569244 701.105286,449.440948 
	C701.226257,446.539215 702.465576,444.484924 706.248474,444.923340 
	C713.096680,445.716949 720.113037,443.846588 726.902405,445.961487 
	C733.979553,448.166016 737.218628,455.199524 736.325439,462.587341 
	C735.202759,471.872833 731.061035,477.967987 722.006409,480.487701 
	C717.783752,481.662750 713.445374,480.853027 709.164062,480.944031 
	C707.027466,480.989441 705.907043,481.166351 705.916748,483.826660 
	C705.934387,488.703094 704.453491,493.510315 704.202393,498.309998 
	C703.850464,505.036499 699.088867,501.928467 696.761719,501.730835 
	C693.351807,501.441254 695.232727,498.526062 695.752625,496.474335 
	C696.070312,495.220581 695.932983,493.851532 696.000122,492.076721 
z"/>
<path fill="#FFFFFF" opacity="1.000000" stroke="none" 
	d="
M326.737976,700.609558 
	C326.094971,703.257812 324.387756,703.015259 322.724854,703.011597 
	C312.252869,702.988586 301.780670,702.974670 291.308777,703.018005 
	C288.752106,703.028564 287.310822,703.135681 288.627533,699.531799 
	C290.824280,693.519287 290.951141,686.948730 292.774414,680.731934 
	C293.642731,677.771362 294.900879,677.030640 297.334961,677.019470 
	C307.141907,676.974426 316.951904,676.876892 326.754364,677.091125 
	C329.101196,677.142334 331.796478,677.165344 330.341919,681.691650 
	C328.437073,687.619202 328.019623,694.024780 326.737976,700.609558 
z"/>
<path fill="#FFFFFF" opacity="1.000000" stroke="none" 
	d="
M421.221863,452.956238 
	C409.055573,461.138824 406.585876,478.204529 411.106018,487.289398 
	C416.080688,497.287842 425.750916,499.431641 434.737549,492.605591 
	C436.361938,491.371765 437.788666,490.883881 439.662415,491.000427 
	C441.582977,491.119904 441.661530,492.867462 442.515381,493.976410 
	C443.671753,495.478210 442.408264,496.099030 441.652435,496.809906 
	C433.109406,504.844299 413.359192,506.476807 405.393585,495.868683 
	C401.029022,490.056244 399.502991,483.270599 400.049866,476.139740 
	C400.782257,466.590271 403.483917,457.828613 410.624420,450.810242 
	C418.968445,442.608856 435.770874,441.805359 444.232605,447.207489 
	C445.728241,448.162384 449.725647,448.944550 446.698730,453.053284 
	C444.075531,456.614075 441.969940,456.373291 439.407776,453.836090 
	C435.210083,449.679352 427.563629,449.260742 421.221863,452.956238 
z"/>
<path fill="#FFFFFF" opacity="1.000000" stroke="none" 
	d="
M805.270996,495.768127 
	C806.592590,497.813629 806.959900,499.975159 808.993713,501.389160 
	C799.336060,502.876373 799.179810,502.756195 792.969788,491.796173 
	C791.229065,488.724030 789.628174,485.515228 786.627625,483.336182 
	C784.506470,487.875153 784.858948,492.808533 784.461426,497.460114 
	C784.040833,502.382568 781.620361,502.382294 778.156616,502.007538 
	C777.186707,501.902588 776.206787,501.890228 775.294434,501.838928 
	C776.212524,494.263641 777.073608,486.884949 778.008240,479.515625 
	C779.234558,469.846161 780.523315,460.184631 781.771179,450.517853 
	C781.897034,449.542603 782.142212,448.513184 781.962830,447.579895 
	C781.142578,443.312042 783.368408,442.772461 786.911926,442.916351 
	C790.059814,443.044128 791.394226,442.923859 790.587463,447.222137 
	C788.765076,456.931671 788.079468,466.854553 787.936035,477.528076 
	C791.125000,474.352661 794.579529,471.397400 797.439087,467.948792 
	C801.456482,463.103912 806.054382,460.500519 813.375916,462.609131 
	C808.339783,467.478455 803.575684,472.181519 798.695129,476.760437 
	C796.442139,478.874268 794.972412,480.380157 797.745728,483.624634 
	C800.722656,487.107330 802.629150,491.504974 805.270996,495.768127 
z"/>
<path fill="#FFFFFF" opacity="1.000000" stroke="none" 
	d="
M767.979736,492.753052 
	C766.888550,494.456238 766.790955,495.978241 767.028687,497.452393 
	C767.615479,501.090790 766.379578,502.097046 762.557007,502.157532 
	C756.380676,502.255310 760.131287,497.732513 758.679688,495.544128 
	C755.301819,499.590515 751.228821,501.933350 745.439331,502.199646 
	C738.895020,502.500641 735.348022,496.770630 734.957947,491.809052 
	C734.083496,480.687073 737.542908,471.765045 747.054504,465.337982 
	C753.766663,460.802490 761.158997,461.739655 768.393677,462.319183 
	C772.444397,462.643616 771.258057,466.674988 770.858337,469.060333 
	C769.566101,476.771912 768.508850,484.494507 767.979736,492.753052 
z"/>
<path fill="#FFFFFF" opacity="1.000000" stroke="none" 
	d="
M890.013733,485.356018 
	C891.570984,478.336273 894.685669,472.843414 899.438538,467.809418 
	C905.480164,461.410278 917.837463,461.070496 925.163879,462.906189 
	C926.644653,463.277222 927.170410,463.734650 926.992676,465.109802 
	C925.889221,473.647705 924.973755,482.218109 923.526306,490.697601 
	C923.159058,492.849182 923.172668,494.932617 923.017944,497.042938 
	C922.727417,501.005920 920.863464,502.975372 916.793701,501.972290 
	C912.747498,500.974945 916.396667,497.351501 914.547302,495.331726 
	C910.991089,497.462585 909.109436,502.103088 903.879761,502.091187 
	C894.406311,502.069611 890.347412,498.441589 890.004883,488.791443 
	C889.969421,487.793854 890.001160,486.793915 890.013733,485.356018 
z"/>
<path fill="#FFFFFF" opacity="1.000000" stroke="none" 
	d="
M458.506256,501.999725 
	C452.268066,500.556702 449.041840,496.564392 447.569275,491.049927 
	C444.823517,480.767487 450.526428,465.530334 461.971405,462.721161 
	C467.496582,461.364960 473.435242,460.305939 478.650208,465.031403 
	C484.431671,470.270203 485.089050,476.914917 483.606720,483.506012 
	C481.813965,491.477295 478.009155,498.536011 469.215515,501.362122 
	C465.761078,502.472351 462.351685,501.631775 458.506256,501.999725 
z"/>
<path fill="#FFFFFF" opacity="1.000000" stroke="none" 
	d="
M959.000000,475.200500 
	C959.309204,472.046753 958.466858,470.136078 955.773987,468.900787 
	C953.097534,467.673004 951.443726,469.629333 949.933716,470.738251 
	C944.062500,475.050110 941.787781,481.442535 941.053833,488.407440 
	C940.763550,491.161926 941.090820,493.946411 940.056213,496.654602 
	C939.437500,498.274353 941.005920,500.887146 939.269287,501.685760 
	C937.476196,502.510345 935.043945,501.899078 932.896606,502.015045 
	C931.327942,502.099762 930.748291,501.385315 931.012512,499.943542 
	C932.626770,491.134064 933.298645,482.207184 934.467896,473.346527 
	C934.770386,471.054352 934.769104,468.787048 934.995972,466.517822 
	C935.378967,462.687378 937.397339,461.283234 941.149597,461.982849 
	C945.052185,462.710480 941.582092,466.368103 943.937683,468.081573 
	C947.766907,464.938660 951.505737,461.488068 957.356506,461.887146 
	C964.499634,462.374298 969.244019,468.364868 967.961365,475.474701 
	C966.637756,482.811615 965.924133,490.260712 965.028259,497.670959 
	C964.832642,499.289001 965.390015,501.443787 963.261475,501.794067 
	C961.044922,502.158844 958.495117,502.255859 956.491516,501.460693 
	C955.387878,501.022705 956.205200,498.600708 956.442261,496.973328 
	C957.474426,489.888000 958.177368,482.754700 959.000000,475.200500 
z"/>
<path fill="#FFFFFF" opacity="1.000000" stroke="none" 
	d="
M564.981750,494.706268 
	C564.342590,496.154388 563.753601,497.170349 564.006714,498.402679 
	C564.695984,501.759094 562.937927,502.231323 560.121582,502.052856 
	C557.056824,501.858643 554.596436,503.114563 555.629883,497.398834 
	C557.036316,489.619873 558.517273,481.614685 558.033508,473.520050 
	C557.761963,468.977600 555.661194,467.161194 551.684326,469.158112 
	C545.337891,472.344818 541.725830,477.835754 541.077637,484.899719 
	C540.719666,488.800842 539.829285,492.616119 539.830505,496.607941 
	C539.831482,499.960999 538.519470,503.313751 533.700073,502.035126 
	C532.777405,501.790344 531.734253,502.000000 530.515808,502.000000 
	C531.691406,491.416962 532.904846,481.030884 533.956299,470.628418 
	C534.202332,468.194275 534.860168,465.838104 535.202942,463.431030 
	C535.645264,460.324371 538.732788,462.276978 540.570984,462.122803 
	C542.592163,461.953308 543.616882,463.624817 542.733093,465.470703 
	C542.040039,466.918365 541.854614,468.186096 542.285400,469.859711 
	C546.535522,463.390381 552.495178,461.048035 559.907104,461.990936 
	C563.287537,462.420929 566.585327,466.763580 567.013184,471.301880 
	C567.497375,476.438416 566.155090,481.433228 565.580627,486.448181 
	C565.282654,489.049835 565.336670,491.664001 564.981750,494.706268 
z"/>
<path fill="#FFFFFF" opacity="1.000000" stroke="none" 
	d="
M524.879150,469.669861 
	C525.124939,480.262451 523.073669,490.229919 521.795105,500.246277 
	C521.328308,503.903076 517.166504,501.564941 514.745117,501.890839 
	C512.277832,502.222961 513.300842,500.510986 513.456360,498.974792 
	C514.344788,490.202423 516.424255,481.542145 516.010620,472.642242 
	C515.843750,469.052216 514.161499,468.318481 510.727203,468.891388 
	C505.814087,469.710938 499.248077,478.468323 499.036713,484.783020 
	C498.899506,488.882416 497.780975,492.836456 497.819214,497.000336 
	C497.849304,500.277039 496.293671,503.244019 491.803131,502.042389 
	C490.735199,501.756622 489.525665,502.000000 488.474976,502.000000 
	C489.340973,494.440369 490.155060,487.197205 491.005066,479.958282 
	C491.649628,474.468811 492.095612,468.939362 493.102081,463.515320 
	C493.700104,460.292328 496.660706,462.309326 498.480408,462.113007 
	C500.528412,461.892090 501.595367,463.566772 500.763153,465.386230 
	C500.091156,466.855347 499.890991,468.147919 500.246704,469.963684 
	C504.569214,463.131195 510.855347,460.894714 518.306763,462.087982 
	C522.039307,462.685730 523.522827,466.033478 524.879150,469.669861 
z"/>
<path fill="#FFFFFF" opacity="1.000000" stroke="none" 
	d="
M573.087280,492.246979 
	C572.805664,484.483246 572.566467,477.165680 577.042358,470.685730 
	C581.837830,463.743164 591.022766,460.043701 599.085327,462.077179 
	C603.621460,463.221222 606.640076,466.536407 606.746399,470.858093 
	C606.857910,475.394287 604.038940,479.247528 599.463379,480.753815 
	C594.429382,482.411041 589.334778,484.278229 583.903564,483.945312 
	C581.335205,483.787903 580.876892,484.754700 580.949219,487.064636 
	C581.135925,493.028900 586.547546,496.884552 592.320251,495.017273 
	C594.638428,494.267426 596.759460,493.214569 598.765564,491.808441 
	C600.893433,490.316925 603.176514,490.366333 604.909851,492.442810 
	C606.930664,494.863708 603.913086,495.438110 602.971558,496.413422 
	C596.945312,502.655640 586.536133,504.018066 579.180054,500.109283 
	C575.979675,498.408691 574.907898,495.352753 573.087280,492.246979 
z"/>
<path fill="#FFFFFF" opacity="1.000000" stroke="none" 
	d="
M268.000580,481.405426 
	C270.041992,472.351898 274.055084,465.276459 283.083649,462.464996 
	C286.764648,461.318726 290.747559,461.561920 294.417877,462.273712 
	C298.693970,463.103027 301.618378,466.607544 301.742462,470.719666 
	C301.864136,474.752655 299.728271,478.407593 295.384613,480.170990 
	C290.277191,482.244415 285.073090,484.085907 279.550690,483.890106 
	C276.119690,483.768433 275.696594,485.163910 275.979462,487.916534 
	C276.512024,493.099274 281.671783,496.443420 286.684143,495.107544 
	C289.417633,494.378998 291.678070,493.064606 294.022156,491.597473 
	C296.088257,490.304352 298.567383,490.351013 300.118591,492.710388 
	C301.546143,494.881561 298.946594,495.301361 298.093414,496.319702 
	C292.484863,503.013733 284.758087,502.904175 277.306915,501.611450 
	C271.564697,500.615204 268.033569,494.824127 268.002014,488.851959 
	C267.989655,486.520081 268.000031,484.188080 268.000580,481.405426 
z"/>
<path fill="#FFFFFF" opacity="1.000000" stroke="none" 
	d="
M239.734955,459.597961 
	C239.352951,455.041656 240.820251,451.064880 241.124527,446.978729 
	C241.435837,442.798248 245.035355,445.739014 247.038071,445.081177 
	C248.738800,444.522552 250.109375,444.963654 250.072510,447.497284 
	C250.017349,451.288483 249.200760,454.983948 248.818069,458.711609 
	C247.609406,470.485016 245.689178,482.185730 244.025558,493.911896 
	C243.668823,496.426239 245.425262,495.991760 246.854797,495.995026 
	C252.180725,496.007172 257.508301,496.075836 262.831848,495.962891 
	C264.972412,495.917511 266.090088,496.160797 266.107513,498.821747 
	C266.125427,501.560089 265.174774,502.086395 262.687653,502.051788 
	C253.377213,501.922180 244.063889,501.999908 234.453140,501.999908 
	C236.153000,487.871002 237.829819,473.933624 239.734955,459.597961 
z"/>
<path fill="#FFFFFF" opacity="1.000000" stroke="none" 
	d="
M610.974854,490.057556 
	C608.723572,482.497009 611.553040,476.386627 615.043152,470.531555 
	C619.916687,462.355347 627.785828,461.232300 636.319824,462.013519 
	C639.578674,462.311798 641.464355,464.776001 643.373779,466.956879 
	C645.205933,469.049347 642.614075,470.136230 641.608215,470.636292 
	C640.112915,471.379608 638.331360,471.059570 636.478149,470.165070 
	C630.675964,467.364410 625.436462,469.040375 622.182129,474.575470 
	C619.857178,478.529785 618.525879,482.817535 618.969543,487.564789 
	C619.506470,493.310181 624.984863,497.035919 630.274353,494.911530 
	C632.197449,494.139191 633.985291,492.953033 635.702942,491.764954 
	C637.982788,490.188049 639.665649,490.942902 641.274170,492.770599 
	C643.240845,495.005219 640.629150,495.583099 639.792236,496.636566 
	C634.012451,503.912689 617.043518,504.653992 612.502686,496.023987 
	C611.586304,494.282379 610.630798,492.567993 610.974854,490.057556 
z"/>
<path fill="#FFFFFF" opacity="1.000000" stroke="none" 
	d="
M318.980225,479.747528 
	C317.320312,484.201660 317.815338,488.530609 317.100372,492.679871 
	C316.517212,496.064514 319.096313,496.689240 321.582855,495.666779 
	C324.404877,494.506256 326.154144,494.680359 327.360992,497.751556 
	C328.860107,501.566620 325.237183,501.066620 323.737640,501.973145 
	C320.459869,503.954529 316.656158,503.322510 313.198944,502.576660 
	C310.545837,502.004303 309.143066,499.714355 308.968597,496.744263 
	C308.406006,487.167694 310.976471,477.915375 311.295837,468.151459 
	C310.542664,467.617462 309.171234,467.977844 307.906372,468.037537 
	C305.791351,468.137360 306.028107,466.788574 305.984894,465.443359 
	C305.937653,463.972321 306.061707,462.601013 308.017578,463.027863 
	C312.239349,463.949188 312.965088,461.280487 313.481201,458.092743 
	C313.813232,456.042175 314.797058,454.066803 314.931549,452.021118 
	C315.176849,448.290527 317.780457,449.130646 319.989777,448.996368 
	C322.994781,448.813812 321.897736,451.084442 321.947479,452.458008 
	C322.005707,454.065002 321.957672,455.636749 321.434723,457.309235 
	C319.862122,462.338715 320.477356,462.982361 325.659668,462.999695 
	C326.324982,463.001923 326.991333,463.023651 327.655457,462.995575 
	C329.534424,462.916168 331.178894,462.670410 331.099884,465.636047 
	C331.028625,468.309845 329.557861,467.952881 327.889923,468.015442 
	C319.071136,468.346039 319.071533,468.363739 319.000580,477.294342 
	C318.995300,477.959625 318.998230,478.625000 318.980225,479.747528 
z"/>
<path fill="#FFFFFF" opacity="1.000000" stroke="none" 
	d="
M656.022583,451.138306 
	C657.556946,447.962891 660.318665,448.666992 662.253723,449.251709 
	C663.915955,449.753998 662.691772,452.219208 662.995789,453.779968 
	C663.026978,453.940247 663.006531,454.112213 662.998962,454.278259 
	C662.873535,457.022034 660.606567,460.168762 662.363525,462.300446 
	C663.969116,464.248474 667.381775,462.869507 669.985413,462.943939 
	C671.944763,462.999969 672.047729,463.987854 672.022583,465.466125 
	C671.998718,466.871338 672.103088,468.201874 670.052612,468.010223 
	C669.228027,467.933167 668.353516,468.156921 667.564087,467.974182 
	C662.748474,466.859467 660.318359,468.820282 660.128906,473.661926 
	C659.892578,479.696960 658.905273,485.635193 658.041748,491.597412 
	C657.491394,495.397186 659.205139,497.027252 662.973083,495.501434 
	C665.599121,494.437958 667.076721,494.998413 668.367126,497.669525 
	C670.171326,501.404388 666.607605,500.960968 665.272095,501.807159 
	C661.861694,503.967926 657.892395,503.280731 654.237305,502.624390 
	C651.776245,502.182465 650.222168,500.005493 650.013672,497.301788 
	C649.491333,490.530548 650.296936,483.796265 651.565796,477.214691 
	C652.126892,474.304230 650.981873,471.214508 652.660156,468.534882 
	C651.322632,466.531128 646.861572,470.394135 646.982178,465.492340 
	C647.017090,464.076782 646.964050,462.610107 648.968750,463.029236 
	C653.114685,463.895935 653.996033,461.418060 654.461365,458.131226 
	C654.774963,455.916229 655.475464,453.755981 656.022583,451.138306 
z"/>
<path fill="#FFFFFF" opacity="1.000000" stroke="none" 
	d="
M878.505493,468.237305 
	C876.373413,476.583130 875.162537,484.807343 875.083252,493.129333 
	C875.055115,496.089935 876.753418,497.413574 879.820801,495.711395 
	C881.336060,494.870575 882.782288,494.055786 884.228455,496.405853 
	C885.712708,498.817596 884.653687,500.111328 883.039673,501.436005 
	C880.877563,503.210571 871.868347,503.809143 869.835571,502.234009 
	C866.021729,499.278809 865.531189,495.528687 866.466064,490.851196 
	C867.770508,484.324860 868.209412,477.624542 868.991943,470.995514 
	C869.205688,469.185059 869.068542,467.591156 866.519592,467.995117 
	C864.620483,468.296143 863.893555,467.557098 863.939392,465.547668 
	C863.981079,463.719788 864.310974,462.810425 866.402039,462.961700 
	C869.459656,463.182892 870.809143,461.583588 871.081360,458.510803 
	C871.261292,456.480072 872.716492,454.507416 872.684265,452.523682 
	C872.606812,447.756836 875.981567,448.609222 878.341858,449.140289 
	C881.323669,449.811218 880.070190,452.309570 879.363831,454.169342 
	C878.339600,456.866180 879.823242,459.827911 878.107422,463.000092 
	C880.901367,463.000092 883.451843,462.900177 885.987976,463.047241 
	C887.066528,463.109833 889.106934,462.120361 888.908325,464.426453 
	C888.766907,466.068848 888.480408,468.093903 885.899048,468.015839 
	C883.570679,467.945404 881.237915,468.021454 878.505493,468.237305 
z"/>
<path fill="#FFFFFF" opacity="1.000000" stroke="none" 
	d="
M365.105286,478.983643 
	C372.699188,482.102539 376.021851,486.369812 374.968231,491.166229 
	C373.381805,498.388153 367.512146,503.046722 359.892944,502.977142 
	C356.355804,502.944824 352.714081,503.688812 349.498138,501.153381 
	C347.950775,499.933380 345.340240,499.714294 346.751038,496.744629 
	C348.290131,493.504913 350.780701,493.145477 353.309998,495.145081 
	C356.372009,497.565796 359.341125,498.179016 362.963989,496.616486 
	C365.517456,495.515198 366.810364,493.658661 366.949371,491.090637 
	C367.095978,488.381317 364.996368,486.863586 362.890930,486.140289 
	C361.193359,485.557129 359.710449,484.622925 358.058929,484.023315 
	C352.018097,481.830109 349.705994,478.968842 350.001190,474.053986 
	C350.305939,468.979248 355.497681,462.413330 360.322693,462.148193 
	C364.816528,461.901245 369.565308,460.913269 373.885742,463.372192 
	C375.667755,464.386353 377.950012,464.972382 376.534546,468.002228 
	C375.142426,470.982178 373.041595,470.255096 370.909973,469.404572 
	C368.737976,468.537872 366.674164,467.091797 364.262939,467.370789 
	C361.073853,467.739807 358.762817,469.741455 358.117584,472.805206 
	C357.444092,476.003387 360.648956,476.553619 362.573822,477.870667 
	C363.230438,478.319946 363.998444,478.606506 365.105286,478.983643 
z"/>
<path fill="#FFFFFF" opacity="1.000000" stroke="none" 
	d="
M844.320618,485.732971 
	C840.450073,483.539520 835.948425,483.223694 833.944580,478.674866 
	C831.215393,472.479584 835.528381,463.937683 842.470459,462.404907 
	C847.348755,461.327850 852.864563,460.736145 857.789001,463.889099 
	C859.420593,464.933685 860.411255,465.685394 859.759338,467.661896 
	C859.088318,469.696381 857.713501,470.263672 855.650330,470.036133 
	C853.499390,469.798981 851.879578,468.383392 849.815063,467.832214 
	C845.489380,466.677246 843.127930,468.481079 841.497925,472.012054 
	C839.768921,475.757843 843.199280,476.368744 845.242859,477.612000 
	C846.581177,478.426208 848.242920,478.689789 849.715637,479.305573 
	C854.086609,481.133087 857.895813,483.713867 857.919373,488.973602 
	C857.942566,494.166473 855.567200,498.476562 850.914490,500.971649 
	C844.797913,504.251770 838.444519,504.140137 832.277771,500.992676 
	C830.808411,500.242706 828.013611,499.698914 829.660645,496.919250 
	C831.005737,494.649139 832.566589,492.544098 835.702454,494.934906 
	C838.533875,497.093567 841.712219,498.438934 845.334229,496.908722 
	C848.011902,495.777466 850.310913,493.963928 849.898621,490.808563 
	C849.542053,488.080200 847.777832,486.073883 844.320618,485.732971 
z"/>
<path fill="#FFFFFF" opacity="1.000000" stroke="none" 
	d="
M814.000000,497.795471 
	C815.335938,486.070679 816.696594,474.795349 817.976379,463.510834 
	C818.135864,462.104279 818.900757,461.995575 819.957336,461.999725 
	C822.251770,462.008728 824.546143,462.002502 826.707581,462.002502 
	C825.774658,469.929260 824.910034,477.471252 823.992065,485.006744 
	C823.365234,490.152191 822.600464,495.281616 822.037781,500.433533 
	C821.885071,501.831940 821.195618,502.007843 820.108032,502.001221 
	C817.963318,501.988129 815.818481,501.997375 812.949524,501.997375 
	C814.058960,500.637695 814.053528,499.442108 814.000000,497.795471 
z"/>
<path fill="#FFFFFF" opacity="1.000000" stroke="none" 
	d="
M346.971313,446.167023 
	C347.074158,451.992157 345.677094,457.164429 344.792908,462.396545 
	C344.484772,464.220032 343.279449,465.340332 340.960876,465.072571 
	C338.558105,464.795166 337.817139,463.614746 338.008118,461.487213 
	C338.399414,457.127686 338.537415,452.717194 339.329712,448.429321 
	C340.211639,443.656555 343.633789,444.484741 346.971313,446.167023 
z"/>
<path fill="#FFFFFF" opacity="1.000000" stroke="none" 
	d="
M827.716431,444.241730 
	C829.720703,447.981049 830.086060,451.483185 825.786133,452.832489 
	C822.754395,453.783844 819.109070,453.648712 818.059448,449.256348 
	C817.566772,447.194489 818.268188,445.086243 819.737610,443.972595 
	C822.056946,442.214844 824.843933,442.408264 827.716431,444.241730 
z"/>
<path fill="#000000" opacity="1.000000" stroke="none" 
	d="
M235.812012,721.682373 
	C232.158096,728.992432 226.069946,729.623291 219.638458,728.836365 
	C221.758194,719.095764 223.958237,709.366882 225.980087,699.601135 
	C228.652878,686.691162 231.319077,673.786560 234.467682,660.976440 
	C236.349930,653.318420 237.448456,645.470642 239.020157,637.732666 
	C240.332809,631.270020 241.612198,624.787292 243.313400,618.422180 
	C244.272293,614.834534 244.253860,611.098389 245.637604,607.553345 
	C246.528534,605.270935 246.093613,602.678223 249.866074,602.925293 
	C253.719604,603.177673 257.585999,602.957886 258.992218,607.642822 
	C260.930542,614.100708 260.223694,620.590881 258.955841,627.040833 
	C256.345978,640.317932 254.000732,653.660217 250.910843,666.826477 
	C247.137177,682.906311 244.904846,699.381592 239.004059,714.932129 
	C238.166000,717.140686 237.052765,719.244812 235.812012,721.682373 
z"/>
<path fill="#000000" opacity="1.000000" stroke="none" 
	d="
M728.154663,701.355774 
	C722.157654,704.762268 718.699036,702.958862 719.080017,696.755615 
	C719.315735,692.915710 720.053589,689.048523 721.052856,685.324280 
	C724.126465,673.868408 725.146545,661.947571 728.985535,650.672546 
	C729.088623,650.369629 728.984497,649.993530 729.096680,649.696777 
	C730.737427,645.356689 735.057129,642.389465 738.074402,644.148315 
	C741.439941,646.110107 741.675293,650.059143 740.753113,653.292358 
	C739.898621,656.288147 739.934509,659.346252 739.071838,662.321838 
	C735.812134,673.566162 734.695984,685.325928 731.023376,696.488159 
	C730.454224,698.218018 729.818604,699.831665 728.154663,701.355774 
z"/>
<path fill="#000000" opacity="1.000000" stroke="none" 
	d="
M728.858154,771.602783 
	C729.017883,778.506165 726.622742,781.849304 719.944641,782.876709 
	C713.917053,783.803894 707.827209,784.904358 701.622009,783.071045 
	C695.916199,781.385315 693.760498,776.529907 697.639587,772.009216 
	C701.299866,767.743591 705.150879,763.589478 712.077209,765.887634 
	C717.600830,767.720459 723.981567,766.867920 728.858154,771.602783 
z"/>
<path fill="#000000" opacity="1.000000" stroke="none" 
	d="
M643.830505,697.671143 
	C646.174133,697.253662 647.648743,693.483948 649.492188,695.399292 
	C651.085266,697.054504 649.649353,699.951721 649.050049,702.369812 
	C647.163818,709.980347 645.541809,717.662415 644.043335,725.360657 
	C643.163391,729.881348 637.172058,734.666870 632.694580,733.989624 
	C629.918640,733.569824 629.015442,731.804443 628.967468,729.117004 
	C628.739014,716.315369 634.259460,706.256714 643.830505,697.671143 
z"/>
<path fill="#000000" opacity="1.000000" stroke="none" 
	d="
M869.789734,699.711060 
	C872.898010,697.685547 875.750122,695.929626 879.168335,693.825195 
	C878.546204,702.005371 876.210754,709.218201 874.634766,716.540283 
	C874.062805,719.197266 873.915283,721.921936 873.156799,724.596313 
	C871.801575,729.374573 868.278625,733.444153 863.474792,733.970581 
	C859.819946,734.371094 858.130981,732.775696 857.934814,728.903137 
	C857.353027,717.416260 862.949951,708.527954 869.789734,699.711060 
z"/>
<path fill="#000000" opacity="1.000000" stroke="none" 
	d="
M707.983032,470.678467 
	C707.917480,464.326233 709.408997,458.608582 709.988647,452.786713 
	C710.073486,451.934631 710.137207,451.355896 711.167297,450.990479 
	C716.304688,449.168274 725.768188,453.038177 726.994263,457.562225 
	C729.041565,465.115936 724.951233,472.352386 717.982727,474.076172 
	C715.410828,474.712372 712.892090,474.889801 710.296387,475.042267 
	C706.738220,475.251312 706.114685,474.002380 707.983032,470.678467 
z"/>
<path fill="#000000" opacity="1.000000" stroke="none" 
	d="
M743.000000,487.793030 
	C744.065125,475.836212 749.047546,469.506287 759.497681,467.201172 
	C760.610596,466.955688 761.583984,466.549072 762.036499,468.358795 
	C763.391785,473.778137 757.475647,490.376984 752.853333,493.627045 
	C747.879089,497.124512 744.208984,495.110046 743.000000,487.793030 
z"/>
<path fill="#000000" opacity="1.000000" stroke="none" 
	d="
M900.259033,493.617279 
	C896.227295,482.914734 902.172424,469.682861 915.102844,467.059204 
	C916.477722,466.780212 918.452271,466.568359 917.966614,469.020844 
	C916.392944,476.968231 916.302734,485.414703 910.053772,491.794708 
	C907.237732,494.669922 904.411682,496.441132 900.259033,493.617279 
z"/>
<path fill="#000000" opacity="1.000000" stroke="none" 
	d="
M458.656769,474.818604 
	C460.866211,469.892822 464.596832,468.569550 469.242493,469.010223 
	C472.365540,469.306427 474.528992,471.202637 474.888641,474.103821 
	C475.618683,479.992462 475.203156,485.855774 471.558167,490.922516 
	C468.874573,494.652924 464.993103,495.858978 460.699310,494.809998 
	C456.367188,493.751648 455.989471,490.181519 455.926361,486.330231 
	C455.860748,482.329041 456.563751,478.624664 458.656769,474.818604 
z"/>
<path fill="#000000" opacity="1.000000" stroke="none" 
	d="
M597.998352,472.990936 
	C593.820251,478.501556 587.560059,477.283966 581.443054,479.815491 
	C583.919800,473.442078 586.437683,469.002319 592.468811,467.835907 
	C596.496460,467.056915 598.870972,469.033752 597.998352,472.990936 
z"/>
<path fill="#000000" opacity="1.000000" stroke="none" 
	d="
M291.679138,474.810211 
	C287.767670,477.716431 283.246033,477.574280 279.209442,478.943817 
	C278.459839,479.198181 277.123657,479.385010 277.042206,477.818848 
	C276.836334,473.860962 285.276245,466.923462 289.306702,467.729370 
	C294.064789,468.680786 294.617004,470.096069 291.679138,474.810211 
z"/>
</svg>